<?xml version="1.0" standalone="no"?>
<!DOCTYPE svg PUBLIC "-//W3C//DTD SVG 20010904//EN"
 "http://www.w3.org/TR/2001/REC-SVG-20010904/DTD/svg10.dtd">
<svg version="1.0" xmlns="http://www.w3.org/2000/svg"
 width="700.000000pt" height="700.000000pt" viewBox="0 0 700.000000 700.000000"
 preserveAspectRatio="xMidYMid meet">
<metadata>
Created by potrace 1.11, written by Peter Selinger 2001-2013
</metadata>
<g transform="translate(0.000000,700.000000) scale(0.100000,-0.100000)"
fill="#000000" stroke="none">
<path d="M1205 5245 c-49 -17 -90 -62 -104 -112 -15 -54 -15 -949 0 -1008 15
-60 71 -111 131 -120 24 -3 826 -5 1783 -3 1719 3 1740 3 1774 23 19 11 43 33
55 48 21 28 21 35 21 555 l0 527 -23 33 c-13 18 -38 40 -55 50 -30 16 -143 17
-1787 19 -1494 2 -1761 0 -1795 -12z"/>
<path d="M5670 2965 c0 -1706 -4 -1589 63 -1682 70 -98 213 -157 324 -134 114
22 198 85 251 186 l27 50 3 1453 2 1453 -24 24 c-25 24 -29 25 -183 25 -134 0
-164 3 -200 20 -46 20 -79 64 -89 118 l-6 32 -84 0 -84 0 0 -1545z"/>
<path d="M1182 3323 c-97 -48 -117 -180 -39 -261 17 -18 47 -37 67 -42 48 -13
1043 -13 1092 0 52 15 105 77 113 133 9 58 -19 124 -66 158 l-34 24 -550 2
c-492 3 -553 1 -583 -14z"/>
<path d="M1182 2623 c-97 -48 -117 -180 -39 -261 17 -18 47 -37 67 -42 48 -13
1043 -13 1092 0 52 15 105 77 113 133 9 58 -19 124 -66 158 l-34 24 -550 2
c-492 3 -553 1 -583 -14z"/>
<path d="M1183 1910 c-69 -31 -104 -111 -83 -189 14 -54 75 -108 132 -116 24
-3 275 -5 558 -3 480 3 517 4 545 21 107 65 107 224 0 284 l-40 23 -535 0
c-506 0 -537 -1 -577 -20z"/>
</g>
</svg>
